<?xml version="1.0" encoding="utf-8"?>
<!-- Generator: Adobe Illustrator 26.5.0, SVG Export Plug-In . SVG Version: 6.00 Build 0)  -->
<svg version="1.1" id="Layer_1" xmlns="http://www.w3.org/2000/svg" xmlns:xlink="http://www.w3.org/1999/xlink" x="0px" y="0px"
	 viewBox="0 0 800 800" style="enable-background:new 0 0 800 800;" xml:space="preserve">
<style type="text/css">
	.st0{opacity:0.5;}
	.st1{fill-rule:evenodd;clip-rule:evenodd;fill:#825ABC;}
	.st2{fill:#442E6A;}
	.st3{fill:#FFFFFF;}
</style>
<g class="st0">
	<path class="st1" d="M466.7,733.3H333.3c-125.7,0-188.6,0-227.6-39.1c-39.1-39-39.1-101.9-39.1-227.6V333.3
		c0-125.7,0-188.6,39.1-227.6C144.8,66.7,208,66.7,334.3,66.7c20.2,0,36.4,0,50,0.6c-0.4,2.7-0.7,5.4-0.7,8.1l-0.3,94.5
		c0,36.6,0,68.9,3.5,94.9c3.8,28.2,12.5,56.5,35.6,79.5c23,23,51.3,31.8,79.5,35.6c26.1,3.5,58.4,3.5,94.9,3.5h3.2h131.9
		c1.4,17.8,1.4,39.7,1.4,68.8v14.6c0,125.7,0,188.6-39.1,227.6C655.2,733.3,592.4,733.3,466.7,733.3z"/>
</g>
<path class="st2" d="M383.6,75.3l-0.3,94.5c0,36.6,0,68.9,3.5,94.9c3.8,28.2,12.5,56.5,35.6,79.5c23,23,51.3,31.8,79.5,35.6
	c26,3.5,58.4,3.5,94.9,3.5h135.1c0.4,5.2,0.7,10.7,0.9,16.7h0.5c0-8.9,0-13.4-0.3-18.6c-1.9-29.8-14.3-64-32-88.1
	c-3.1-4.2-5.2-6.8-9.5-11.9c-26.4-31.6-61.2-71-91.6-98.1c-27-24.1-64-50.5-96.3-72c-27.7-18.5-41.6-27.8-60.6-34.7
	c-5-1.8-11.7-3.8-16.9-5.1c-12.8-3.2-25.3-4.2-42.8-4.6L383.6,75.3z"/>
<g>
	<path class="st3" d="M244.4,461.2c3.5-4.3,5.8-7.8,11.7-7.8c5.6,0,10,5.4,10,10.8c0,3.7-2.4,6.7-4.3,9.3l-23.4,30.8
		c-5.6,7.4-5.6,7.8-5.6,16.9v32.9c0,9.1,0,9.5,5.6,16.9l22.7,30.1c2.2,3,5,6.3,5,10c0,6.1-4.5,10.8-10.4,10.8
		c-5.2,0-7.6-3.2-10.6-6.9l-21.4-26.4c-9.5-11.7-12.6-19.3-12.6-34.4v-32.9c0-14.9,3-22.7,12.6-34.4L244.4,461.2z"/>
	<path class="st3" d="M378.5,526c-6.1,0-14.3-1.3-14.3-10.4c0-8.9,7.4-10.4,14.3-10.4h28.6c10.8,0,18.6,1.1,26.9,9.3
		c8,8,9.1,14.3,9.3,24.7l2.2,70.6c0.2,6.1-2.8,12.1-9.7,12.1c-5.4,0-10.8-4.5-10.6-10.4l-14.3,7.4c-5.8,3-6.1,3-12.8,3H378
		c-9.3,0-16-1.1-23.6-7.4c-8.7-7.1-10.8-14.7-10.8-25.6v-9.1c0-10,2.4-16.2,10.2-23.2c7.1-6.3,15.2-7.8,24.3-7.8h44.6v-4.8
		c0-15.6-3.5-18.2-18.4-18.2H378.5z M378.2,569.7c-5.6,0-13.9,1.5-13.9,9.1v13.9c0,6.9,8.4,8.4,13.4,8.4h23l23-11.9v-4.5
		c0-11.5-3.2-14.9-14.7-14.9H378.2z"/>
	<path class="st3" d="M565.4,486.8c9.5,11.7,12.6,19.5,12.6,34.4v32.9c0,15.2-3,22.7-12.6,34.4L544,615c-3,3.7-5.4,6.9-10.6,6.9
		c-5.8,0-10.4-4.8-10.4-10.8c0-3.7,2.8-6.9,5-10l22.7-30.1c5.6-7.4,5.6-7.8,5.6-16.9v-32.9c0-9.1,0-9.5-5.6-16.9l-23.4-30.8
		c-2-2.6-4.3-5.6-4.3-9.3c0-5.4,4.3-10.8,10-10.8c5.8,0,8.2,3.5,11.7,7.8L565.4,486.8z"/>
</g>
</svg>
